<svg xmlns="http://www.w3.org/2000/svg" width="21.031" height="21.031" viewBox="0 0 21.031 21.031">
  <path id="Icon_metro-cancel" data-name="Icon metro-cancel" d="M13.086,1.928A10.515,10.515,0,1,0,23.6,12.444,10.515,10.515,0,0,0,13.086,1.928Zm0,19.059a8.544,8.544,0,1,1,8.544-8.544A8.544,8.544,0,0,1,13.086,20.987Zm3.286-13.8-3.286,3.286L9.8,7.186,7.828,9.157l3.286,3.286L7.828,15.73,9.8,17.7l3.286-3.286L16.372,17.7l1.972-1.972-3.286-3.286,3.286-3.286Z" transform="translate(-2.571 -1.928)" fill="#b10c0c"/>
</svg>
