<svg xmlns="http://www.w3.org/2000/svg" xmlns:xlink="http://www.w3.org/1999/xlink" width="39" height="39" viewBox="0 0 39 39">
  <defs>
    <clipPath id="clip-path">
      <rect id="Rectangle_36" data-name="Rectangle 36" width="39" height="39" transform="translate(-0.23 -0.23)" fill="#fff"/>
    </clipPath>
  </defs>
  <g id="Group_20" data-name="Group 20" transform="translate(0.23 0.23)" clip-path="url(#clip-path)">
    <path id="Path_73" data-name="Path 73" d="M35.928,0H2.755A2.776,2.776,0,0,0,0,2.79V35.9a2.776,2.776,0,0,0,2.755,2.79H35.928a2.783,2.783,0,0,0,2.764-2.79V2.79A2.783,2.783,0,0,0,35.928,0M11.694,33.165H5.959V14.7H11.7V33.165ZM8.827,12.178a3.325,3.325,0,1,1,3.325-3.325,3.327,3.327,0,0,1-3.325,3.325M33.191,33.165H27.456V24.183c0-2.142-.043-4.9-2.98-4.9-2.988,0-3.446,2.332-3.446,4.742v9.138H15.3V14.7h5.5v2.522h.078a6.04,6.04,0,0,1,5.432-2.98c5.8,0,6.883,3.826,6.883,8.8Z" transform="translate(0.078 0.078)" fill="#fff"/>
  </g>
</svg>
