<svg xmlns="http://www.w3.org/2000/svg" xmlns:xlink="http://www.w3.org/1999/xlink" width="38" height="39" viewBox="0 0 38 39">
  <defs>
    <clipPath id="clip-path">
      <rect id="Rectangle_37" data-name="Rectangle 37" width="38" height="39" transform="translate(0.497 -0.23)" fill="#fff"/>
    </clipPath>
  </defs>
  <g id="Group_22" data-name="Group 22" transform="translate(-0.497 0.23)" clip-path="url(#clip-path)">
    <path id="Path_74" data-name="Path 74" d="M19.346,14.739a4.607,4.607,0,1,0,4.608,4.607,4.607,4.607,0,0,0-4.608-4.607M30.117,11.2A4.664,4.664,0,0,0,27.49,8.572c-1.814-.716-6.132-.555-8.144-.555S13.02,7.85,11.2,8.572A4.664,4.664,0,0,0,8.574,11.2c-.715,1.814-.555,6.136-.555,8.147s-.16,6.328.559,8.148A4.664,4.664,0,0,0,11.2,30.119c1.814.716,6.132.555,8.145.555s6.325.167,8.144-.555a4.664,4.664,0,0,0,2.626-2.626c.721-1.814.555-6.136.555-8.147s.166-6.327-.555-8.147ZM19.346,26.428a7.073,7.073,0,1,1,.017,0h-.017M26.72,13.62a1.653,1.653,0,1,1,1.652-1.654h0a1.65,1.65,0,0,1-1.643,1.657h-.006ZM34.546,0H4.146A4.146,4.146,0,0,0,0,4.146v30.4a4.146,4.146,0,0,0,4.146,4.146h30.4a4.146,4.146,0,0,0,4.146-4.146V4.146A4.146,4.146,0,0,0,34.546,0M33.068,25.046a8.217,8.217,0,0,1-2.233,5.787,8.222,8.222,0,0,1-5.787,2.233c-2.281.129-9.119.129-11.4,0a8.233,8.233,0,0,1-5.787-2.233,8.193,8.193,0,0,1-2.233-5.787c-.129-2.282-.129-9.121,0-11.4A8.191,8.191,0,0,1,7.862,7.859a8.237,8.237,0,0,1,5.787-2.227c2.281-.129,9.119-.129,11.4,0a8.223,8.223,0,0,1,5.787,2.233,8.222,8.222,0,0,1,2.233,5.791c.129,2.273.129,9.106,0,11.39" transform="translate(0.078 0.078)" fill="#fff"/>
  </g>
</svg>
