<svg xmlns="http://www.w3.org/2000/svg" width="55.89" height="55.006" viewBox="0 0 55.89 55.006">
  <path id="Icon_awesome-star" data-name="Icon awesome-star" d="M20.473,1.419l-5.2,10.552-11.644,1.7A2.552,2.552,0,0,0,2.214,18.02l8.424,8.209-1.992,11.6a2.549,2.549,0,0,0,3.7,2.686L22.76,35.035,33.177,40.51a2.551,2.551,0,0,0,3.7-2.686l-1.992-11.6,8.424-8.209A2.552,2.552,0,0,0,41.9,13.668l-11.644-1.7-5.2-10.552a2.552,2.552,0,0,0-4.575,0Z" transform="translate(-1.306 18.629) rotate(-25)" fill="#ad7a51"/>
</svg>
