<svg xmlns="http://www.w3.org/2000/svg" width="30" height="25" viewBox="0 0 30 25">
  <g id="Group_30" data-name="Group 30" transform="translate(-1130.161 -263.695)">
    <g id="Rectangle_48" data-name="Rectangle 48" transform="translate(1130.161 263.695)" fill="#fff" stroke="#fff" stroke-width="2">
      <path d="M5,0H25a5,5,0,0,1,5,5V21a4,4,0,0,1-4,4H1a1,1,0,0,1-1-1V5A5,5,0,0,1,5,0Z" stroke="none"/>
      <path d="M5,1H25a4,4,0,0,1,4,4V21a3,3,0,0,1-3,3H1a0,0,0,0,1,0,0V5A4,4,0,0,1,5,1Z" fill="none"/>
    </g>
    <g id="Group_28" data-name="Group 28" transform="translate(1135.273 270.592)">
      <line id="Line_10" data-name="Line 10" x2="20" transform="translate(-0.112 0.103)" fill="none" stroke="#ad7a51" stroke-width="2"/>
      <line id="Line_11" data-name="Line 11" x2="18" transform="translate(-0.112 4.103)" fill="none" stroke="#ad7a51" stroke-width="2"/>
      <line id="Line_12" data-name="Line 12" x2="20" transform="translate(-0.112 8.103)" fill="none" stroke="#ad7a51" stroke-width="2"/>
      <line id="Line_13" data-name="Line 13" x2="15" transform="translate(-0.112 12.103)" fill="none" stroke="#ad7a51" stroke-width="2"/>
    </g>
  </g>
</svg>
